<?xml version="1.0" encoding="UTF-8" standalone="no"?>
<!-- Created with Inkscape (http://www.inkscape.org/) -->

<svg
   xmlns:dc="http://purl.org/dc/elements/1.1/"
   xmlns:cc="http://creativecommons.org/ns#"
   xmlns:rdf="http://www.w3.org/1999/02/22-rdf-syntax-ns#"
   xmlns:svg="http://www.w3.org/2000/svg"
   xmlns="http://www.w3.org/2000/svg"
   xmlns:sodipodi="http://sodipodi.sourceforge.net/DTD/sodipodi-0.dtd"
   xmlns:inkscape="http://www.inkscape.org/namespaces/inkscape"
   width="3200"
   height="800"
   id="svg2"
   version="1.1"
   inkscape:version="0.91 r13725"
   sodipodi:docname="Ei_Phone2.svg">
  <sodipodi:namedview
     id="base"
     pagecolor="#ffffff"
     bordercolor="#666666"
     borderopacity="1.0"
     inkscape:pageopacity="0.0"
     inkscape:pageshadow="2"
     inkscape:zoom="0.41012193"
     inkscape:cx="1686.1"
     inkscape:cy="617.26167"
     inkscape:document-units="px"
     inkscape:current-layer="layer1"
     showgrid="false"
     inkscape:window-width="1442"
     inkscape:window-height="750"
     inkscape:window-x="0"
     inkscape:window-y="0"
     inkscape:window-maximized="0" />
  <defs
     id="defs4" />
  <metadata
     id="metadata7">
    <rdf:RDF>
      <cc:Work
         rdf:about="">
        <dc:format>image/svg+xml</dc:format>
        <dc:type
           rdf:resource="http://purl.org/dc/dcmitype/StillImage" />
        <dc:title />
      </cc:Work>
    </rdf:RDF>
  </metadata>
  <g
     inkscape:label="1-default"
     inkscape:groupmode="layer"
     id="layer1"
     transform="translate(0,-252.36218)">
    <path
       style="fill:none;fill-rule:evenodd;stroke:#000000;stroke-width:1px;stroke-linecap:butt;stroke-linejoin:miter;stroke-opacity:1"
       d="m 1436.2917,409.20535 516.335,0.53673"
       id="path3411"
       inkscape:connector-curvature="0"
       inkscape:label="line" />
    <path
       style="fill:none;fill-rule:evenodd;stroke:#000000;stroke-width:1px;stroke-linecap:butt;stroke-linejoin:miter;stroke-opacity:1"
       d="M 1435.7549,635.70576 1952.09,635.16902"
       id="path3409"
       inkscape:connector-curvature="0"
       inkscape:label="line" />
    <path
       style="fill:none;fill-rule:evenodd;stroke:#000000;stroke-width:1px;stroke-linecap:butt;stroke-linejoin:miter;stroke-opacity:1"
       d="m 1438.3344,861.47739 516.504,0.37688"
       id="path8475"
       inkscape:connector-curvature="0"
       inkscape:label="line" />
    <path
       style="fill:none;fill-rule:evenodd;stroke:#000000;stroke-width:1px;stroke-linecap:butt;stroke-linejoin:miter;stroke-opacity:1"
       d="m 1437.9576,816.44111 516.6924,0.18844"
       id="path8473"
       inkscape:connector-curvature="0"
       inkscape:label="line" />
    <path
       style="fill:none;fill-rule:evenodd;stroke:#000000;stroke-width:1px;stroke-linecap:butt;stroke-linejoin:miter;stroke-opacity:1"
       d="m 1607.1734,772.72389 1.1306,135.29728"
       id="path8471"
       inkscape:connector-curvature="0"
       inkscape:label="line" />
    <path
       style="fill:none;fill-rule:evenodd;stroke:#000000;stroke-width:1px;stroke-linecap:butt;stroke-linejoin:miter;stroke-opacity:1"
       d="m 1780.5348,772.91232 0.9422,135.29728"
       id="path8469"
       inkscape:connector-curvature="0"
       inkscape:label="line" />
    <path
       style="clip-rule:evenodd;fill:none;fill-rule:evenodd;stroke:#000000;stroke-width:1;stroke-miterlimit:4;stroke-dasharray:none"
       d="m 1954.9096,795.73512 c 0,-12.5074 -19.5741,-22.65941 -43.6543,-22.65941 l -429.339,0 c -24.0802,0 -43.6543,10.15201 -43.6543,22.65941 l 0,89.77297 c 0,12.50739 19.5741,22.67431 43.6543,22.67431 l 429.339,0 c 24.0802,0 43.6543,-10.16692 43.6543,-22.67431 l 0,-89.77297 z"
       id="rect2807"
       inkscape:connector-curvature="0" />
    <path
       style="clip-rule:evenodd;fill:none;fill-rule:evenodd;stroke:#000000;stroke-width:0.94248962;stroke-linejoin:round;stroke-miterlimit:4;stroke-dasharray:none;stroke-opacity:0.77307703"
       d="m 1953.1302,361.30815 c 0,-3.86628 -6.8029,-7.00432 -15.1845,-7.00432 l -486.3074,0 c -8.3816,0 -15.1846,3.13804 -15.1846,7.00432 l 0,369.97053 c 0,3.86628 6.803,7.00431 15.1846,7.00431 l 486.3074,0 c 8.3816,0 15.1845,-3.13803 15.1845,-7.00431 l 0,-369.97053 z"
       id="rect4019"
       inkscape:connector-curvature="0" />
    <g
       style="clip-rule:evenodd;fill-rule:evenodd;stroke-width:0.04834468;stroke-miterlimit:4;stroke-dasharray:none"
       transform="matrix(-28.70105,0,0,-14.907501,962.9152,261.99267)"
       id="rect3790">
      <path
         id="path8402"
         style="fill:none;stroke:#000000;stroke-width:0.04834468;stroke-miterlimit:4;stroke-dasharray:none"
         d="m -23.563,-29.542 c 0,-0.529 -0.429,-0.958 -0.957,-0.958 l -2.022,0 c -0.529,0 -0.958,0.429 -0.958,0.958 l 0,2.084 c 0,0.529 0.429,0.958 0.958,0.958 l 2.022,0 c 0.528,0 0.957,-0.429 0.957,-0.958 l 0,-2.084 z"
         inkscape:connector-curvature="0" />
    </g>
    <path
       style="fill:none;fill-rule:evenodd;stroke:#000000;stroke-width:1;stroke-linecap:butt;stroke-linejoin:miter;stroke-miterlimit:4;stroke-dasharray:none;stroke-opacity:1"
       d="m 1616,377.42377 149.1429,0"
       id="path8477"
       inkscape:connector-curvature="0" />
    <g
       inkscape:label="Hershey Text"
       transform="matrix(3.2007323,0,0,2.9947316,1455.6938,520.18676)"
       id="g8579">
      <path
         inkscape:connector-curvature="0"
         d="m -6,-12 0,21 m 0,-21 13,0 M -6,-2 2,-2 M -6,9 7,9"
         style="fill:none;stroke:#000000"
         transform="translate(10,0)"
         id="path8581" />
      <path
         inkscape:connector-curvature="0"
         d="m -1,-12 1,1 1,-1 -1,-1 -1,1 m 1,7 0,14"
         style="fill:none;stroke:#000000"
         transform="translate(23,0)"
         id="path8583" />
      <path
         inkscape:connector-curvature="0"
         d="M -9,0 9,0"
         style="fill:none;stroke:#000000"
         transform="translate(40,0)"
         id="path8585" />
      <path
         inkscape:connector-curvature="0"
         d="m -7,-12 0,21 m 0,-21 9,0 3,1 1,1 1,2 0,3 -1,2 -1,1 -3,1 -9,0"
         style="fill:none;stroke:#000000"
         transform="translate(64,0)"
         id="path8587" />
      <path
         inkscape:connector-curvature="0"
         d="m -5,-12 0,21 m 0,-10 3,-3 2,-1 3,0 2,1 1,3 0,10"
         style="fill:none;stroke:#000000"
         transform="translate(83,0)"
         id="path8589" />
      <path
         inkscape:connector-curvature="0"
         d="m -1,-5 -2,1 -2,2 -1,3 0,2 1,3 2,2 2,1 L 2,9 4,8 6,6 7,3 7,1 6,-2 4,-4 2,-5 -1,-5"
         style="fill:none;stroke:#000000"
         transform="translate(102,0)"
         id="path8591" />
      <path
         inkscape:connector-curvature="0"
         d="m -5,-5 0,14 m 0,-10 3,-3 2,-1 3,0 2,1 1,3 0,10"
         style="fill:none;stroke:#000000"
         transform="translate(121,0)"
         id="path8593" />
      <path
         inkscape:connector-curvature="0"
         d="M -6,1 6,1 6,-1 5,-3 4,-4 2,-5 l -3,0 -2,1 -2,2 -1,3 0,2 1,3 2,2 2,1 3,0 2,-1 2,-2"
         style="fill:none;stroke:#000000"
         transform="translate(140,0)"
         id="path8595" />
    </g>
  </g>
  <eggbot
     totaldeltay="0"
     totaldeltax="0"
     lastpathnc="0"
     lastpath="0"
     node="0"
     layer="0" />
</svg>
